<?xml version="1.0" encoding="utf-8"?>
<!-- Generator: Adobe Illustrator 16.0.0, SVG Export Plug-In . SVG Version: 6.00 Build 0)  -->
<!DOCTYPE svg PUBLIC "-//W3C//DTD SVG 1.1//EN" "http://www.w3.org/Graphics/SVG/1.1/DTD/svg11.dtd">
<svg version="1.1" id="Layer_1" xmlns="http://www.w3.org/2000/svg" xmlns:xlink="http://www.w3.org/1999/xlink" x="0px" y="0px"
	 width="1000px" height="166.907px" viewBox="-194 273.736 1000 166.907" enable-background="new -194 273.736 1000 166.907"
	 xml:space="preserve">
<title>Bain Capital Ventures logo</title>
<g>
	<polygon fill="#FFFFFF" points="-194,380.881 -140.428,354.095 -194,327.309 	"/>
	<polygon fill="#E42822" points="-194,380.881 -194,434.454 -86.855,380.881 -140.428,354.095 	"/>
	<polygon fill="#1C2156" points="-194,434.454 -33.283,434.454 -33.283,407.667 -86.855,380.881 	"/>
	<polygon fill="#1CA6DF" points="-194,273.736 -194,327.309 -140.428,354.095 -86.855,327.309 	"/>
	<polygon fill="#1C2156" points="-194,273.736 -86.855,327.309 -33.283,300.523 -33.283,273.736 	"/>
	<polygon fill="#AACAE8" points="-86.855,327.309 -140.428,354.095 -86.855,380.881 -33.283,407.667 -33.283,354.095 
		-33.283,300.523 	"/>
	<path fill="#1C2156" d="M735.051,370.833c-4.546,0.035-9.086,0.322-13.6,0.86c-8.328,1.305-12.908,5.552-12.908,12.908
		c0,6.384,4.19,9.854,10.437,9.854c8.549,0,16.071-5.801,16.071-17.099V370.833L735.051,370.833z M713.179,409.083
		c-15.351,0-24.982-9.576-24.982-24.177c0-13.324,8.55-21.457,22.734-24.787c7.964-1.528,16.068-2.207,24.176-2.026
		c0-11.437-4.636-15.323-16.515-15.323c-7.626,0.146-15.133,1.926-22.013,5.219v-15.85c7.806-3.217,16.179-4.841,24.621-4.774
		c24.982,0,34.003,11.297,34.003,32.588v31.478h9.854v15.904h-27.759l-1.525-7.938h-0.307c-5.565,6.41-13.719,9.978-22.205,9.716
		 M462.471,370.833c-4.537,0.036-9.068,0.323-13.573,0.86c-8.328,1.305-12.907,5.552-12.907,12.908
		c0,6.384,4.191,9.854,10.408,9.854c8.55,0,16.072-5.801,16.072-17.099V370.833z M440.625,409.083
		c-15.351,0-24.982-9.576-24.982-24.177c0-13.324,8.55-21.457,22.734-24.787c7.964-1.528,16.068-2.207,24.176-2.026
		c0-11.437-4.635-15.323-16.488-15.323c-7.625,0.146-15.132,1.927-22.011,5.219v-15.85c7.808-3.215,16.178-4.838,24.622-4.774
		c24.98,0,34.029,11.297,34.029,32.588v31.478h9.826v15.904h-27.757l-1.583-7.938h-0.277c-5.574,6.4-13.724,9.965-22.206,9.716
		 M154.193,370.833c-4.556,0.036-9.106,0.323-13.63,0.86c-8.327,1.305-12.879,5.552-12.879,12.908c0,6.384,4.22,9.854,10.438,9.854
		c8.549,0,16.072-5.801,16.072-17.099V370.833L154.193,370.833z M132.32,409.111c-15.351,0-24.982-9.577-24.982-24.177
		c0-13.324,8.549-21.458,22.733-24.789c7.965-1.528,16.069-2.207,24.177-2.025c0-11.437-4.607-15.323-16.515-15.323
		c-7.626,0.144-15.133,1.923-22.012,5.219v-15.878c7.807-3.216,16.178-4.84,24.621-4.774c24.982,0,34.031,11.297,34.031,32.588
		v31.478h9.854v15.904h-27.757l-1.61-7.938h-0.278c-5.571,6.403-13.722,9.97-22.206,9.716 M561.232,367.947
		c0-14.601-7.218-24.316-18.376-24.316c-11.159,0-18.237,9.826-18.237,24.177c0,14.351,7.078,24.454,17.82,24.454
		c11.104,0,18.82-9.854,18.82-24.343 M581.967,367.919c0,24.343-13.878,41.164-34.029,41.164c-12.021,0-19.127-4.802-22.734-9.715
		h-0.39v32.948l-20.262,8.327V344.63H494.28v-15.905h28.952l1.304,10.271h0.277c2.609-4.053,8.688-11.742,23.012-11.742
		c20.985,0,34.031,16.072,34.031,40.693 M286.098,327.253c-9.848-0.405-19.285,3.967-25.343,11.742h-0.306l-1.304-10.271h-30.228
		v15.905h11.297v62.704h20.43V371c0-19.431,10.27-26.62,19.097-26.62c8.327,0,12.158,5.357,12.158,17.376v45.578h20.263v-50.213
		c0-19.68-8.966-29.839-26.175-29.839 M378.781,390.43c-20.847,0-33.143-14.045-33.143-36.641c0-22.012,12.296-36.917,31.394-36.917
		c4.626-0.014,9.237,0.518,13.74,1.582v22.206l18.126-7.522v-26.147c-9.43-5.358-20.137-8.054-30.978-7.8
		c-32.005,0-53.852,19.68-53.852,54.876c0,33.309,19.431,55.044,53.852,55.044c10.933-0.008,21.695-2.706,31.338-7.855l-4.47-17.071
		C396.748,388.328,387.827,390.471,378.781,390.43 M796.146,391.457v-97.152l-20.402,8.328v104.701H806V391.43h-9.854V391.457z
		 M79.469,375.497c0-10.132-7.384-15.655-20.125-15.655h-19.43v31.45h19.708c14.184,0,19.986-6.385,19.986-15.794 M39.804,344.074
		h16.516c11.742,0,17.376-5.551,17.376-13.462c0-9.132-5.551-13.879-16.21-13.879H39.804V344.074z M101.037,376.551
		c0,20.403-16.072,30.672-40.249,30.672H18.791v-90.379H6.05v-15.933h51.269c13.878,0,20.873,1.887,26.37,5.357
		c7.189,4.504,11.423,12.507,11.103,20.985c0,11.104-6.938,19.708-18.236,22.734v0.306c15.211,2.609,24.482,12.602,24.482,26.369
		 M587.741,344.63h11.104v62.704h20.347v-78.609h-31.45V344.63z M598.845,315.096h20.347V295.86h-20.43v19.264L598.845,315.096z
		 M186.17,344.63h11.103v62.704h20.43v-78.609H186.17V344.63z M197.273,315.096h20.43V295.86h-20.43v19.264V315.096z
		 M661.854,328.697h20.706v15.933h-20.706v34.697c0,8.688,1.887,13.878,10.271,13.878c3.121-0.17,6.223-0.606,9.271-1.304v15.211
		c-5.213,1.322-10.557,2.059-15.933,2.192c-15.934,0-23.898-7.688-23.898-24.62V344.63H630.46v-15.905h11.104v-13.49l20.29-8.327
		v21.873V328.697z"/>
</g>
</svg>
